PathFileType	4	(X/Y/Z)	./resultDataOpenSim/trcMotMarkerGrf/sub09/qtm-14-04.trc
DataRate	CameraRate	NumFrames	NumMarkers	Units	OrigDataRate	OrigDataStartFrame	OrigNumFrames
250.000000	250.000000	13	24	m	250.000000	360	479
Frame#	Time	L.Toe.Tip			R.Toe.Tip			L.Ankle.Lat			R.Ankle.Lat			L.Ankle.Med			R.Ankle.Med			L.Heel			R.Heel			L.Knee.Lat			R.Knee.Lat			L.Knee.Med			R.Knee.Med			L.Thigh.Upper			R.Thigh.Upper			L.ASIS			R.ASIS			V.Sacral			L.Acromium			R.Acromium			C7			L.Elbow			R.Elbow			L.Wrist.Lat			R.Wrist.Lat
		X1	Y1	Z1	X2	Y2	Z2	X3	Y3	Z3	X4	Y4	Z4	X5	Y5	Z5	X6	Y6	Z6	X7	Y7	Z7	X8	Y8	Z8	X9	Y9	Z9	X10	Y10	Z10	X11	Y11	Z11	X12	Y12	Z12	X13	Y13	Z13	X14	Y14	Z14	X15	Y15	Z15	X16	Y16	Z16	X17	Y17	Z17	X18	Y18	Z18	X19	Y19	Z19	X20	Y20	Z20	X21	Y21	Z21	X22	Y22	Z22	X23	Y23	Z23	X24	Y24	Z24

360	1.436	0.77427957	0.13664873	-0.052322868	1.0640292	0.039651582	0.06169595	0.73238221	0.28679406	-0.092766352	0.91663697	0.055805549	0.098729068	0.75444787	0.27600308	0.0037464118	0.92556304	0.094905888	0.0067476803	0.66181209	0.32352132	-0.048699423	0.84622707	0.037354586	0.050945613	1.0737986	0.5001284	-0.10684996	1.0251086	0.49827347	0.16209243	1.0721467	0.49021264	0.020151769	1.0025539	0.4897535	0.03595469	0.90322027	0.87398744	-0.13593737	0.92274615	0.89438349	0.23399743	0.97913289	0.96023173	-0.081512852	1.0009557	0.97413864	0.15382813	0.82708092	1.0309649	0.042955817	1.0150608	1.4076197	-0.14911825	0.99981529	1.4335921	0.18131608	0.93750326	1.473791	0.012527547	0.86972049	1.0630541	-0.1818568	0.84905932	1.0980756	0.28329863	1.0077699	0.83831778	-0.21208169	1.0430206	0.89710012	0.30170638
361	1.44	0.793156	0.13503451	-0.053827526	1.0641317	0.039625523	0.061663272	0.74641786	0.28369265	-0.092870912	0.91676911	0.056023969	0.098642724	0.7689699	0.27290781	0.0034804561	0.92581137	0.09515583	0.0066534207	0.67472343	0.31825994	-0.048599135	0.84640801	0.03760931	0.050707906	1.0839459	0.50389041	-0.10685331	1.0266663	0.49839649	0.16226878	1.0782587	0.4930844	0.019069786	1.0037066	0.48979648	0.035860323	0.90995034	0.87592232	-0.13591646	0.92758379	0.89532995	0.23394788	0.98464459	0.96215038	-0.08137623	1.0062483	0.97532654	0.15396456	0.83242341	1.0323494	0.042998416	1.0197319	1.4090503	-0.14939796	1.0047857	1.4352772	0.18102369	0.94228953	1.4752216	0.012246849	0.87396364	1.0649634	-0.18179481	0.85460946	1.0994749	0.28337314	1.0104102	0.83945724	-0.21344047	1.0498939	0.89975097	0.30068663
362	1.444	0.81212138	0.13327475	-0.055257109	1.0642209	0.039590038	0.061635214	0.76053946	0.28033007	-0.092984229	0.9170027	0.056234777	0.098512902	0.78352027	0.2695887	0.0031944213	0.92605216	0.095428735	0.0065691934	0.68780865	0.31263816	-0.048598387	0.84659367	0.037898293	0.050460557	1.0939272	0.50762506	-0.10687905	1.0282006	0.49848062	0.16240492	1.0873163	0.49643764	0.018719716	1.0049085	0.4898165	0.035781774	0.91681151	0.87779843	-0.13582674	0.93246488	0.89628004	0.23382464	0.99014955	0.9640064	-0.081257144	1.0115266	0.97644363	0.15408103	0.83780858	1.0337069	0.043055785	1.0243991	1.4104258	-0.14965991	1.0097629	1.4368959	0.18074979	0.94709532	1.4766132	0.011995559	0.8781604	1.0667196	-0.18184519	0.86020976	1.1008102	0.28348724	1.0130664	0.84056448	-0.21480401	1.0567091	0.90230864	0.29966114
363	1.448	0.83106612	0.1313485	-0.056564134	1.0643076	0.039547478	0.061613964	0.77477245	0.27671164	-0.093113572	0.91725701	0.056459716	0.098377093	0.79823761	0.26605612	0.0029212048	0.92634017	0.095709651	0.006471775	0.70102625	0.30662697	-0.048538642	0.84676207	0.038302536	0.050244719	1.1036589	0.51130523	-0.10691565	1.0297108	0.49849619	0.16250625	1.098843	0.5001647	0.018986081	1.0061997	0.48984805	0.035796215	0.92328306	0.87964788	-0.13587469	0.93694976	0.89717671	0.23377383	0.99565201	0.96579156	-0.081157339	1.0167921	0.9774949	0.15418056	0.84322079	1.0350259	0.043122285	1.0290611	1.4117487	-0.14991134	1.0147411	1.4384466	0.18049498	0.95192684	1.4779627	0.011792383	0.88233244	1.0683738	-0.18193891	0.86579039	1.1020665	0.28359919	1.0157618	0.84163828	-0.2161572	1.0634815	0.90476733	0.29863187
364	1.452	0.84991088	0.12925357	-0.057703528	1.0644071	0.039508109	0.061595036	0.7891454	0.27285601	-0.093269939	0.9174179	0.056726924	0.098288863	0.81329611	0.26233269	0.0026070231	0.92673908	0.095985868	0.0063329849	0.71439844	0.30027459	-0.048423468	0.84691949	0.038822684	0.050090654	1.1131476	0.51486757	-0.10697078	1.0312346	0.49849125	0.16262379	1.1116301	0.50405987	0.019558962	1.0075461	0.48990128	0.035958045	0.92907066	0.88147468	-0.1361779	0.94063318	0.89798678	0.23390235	1.0011574	0.96750233	-0.081077624	1.0220464	0.97848762	0.1542678	0.84858913	1.0362616	0.043166739	1.0337153	1.413019	-0.15015787	1.0197114	1.4399308	0.180256	0.95676571	1.4792618	0.011620199	0.88650296	1.0699576	-0.18202746	0.87132742	1.1032429	0.28369301	1.018514	0.84267503	-0.21748781	1.0702206	0.90712847	0.29760071
365	1.456	0.86868158	0.12703184	-0.058673542	1.064523	0.039478566	0.06157179	0.80367575	0.26878145	-0.093459284	0.91748092	0.057035535	0.098243005	0.82876229	0.25845273	0.002197958	0.92725305	0.096260755	0.0061571513	0.72798065	0.29366443	-0.048332041	0.84711339	0.03936174	0.05001194	1.1224304	0.51826612	-0.10707527	1.0327789	0.49852023	0.16277703	1.1243844	0.5079152	0.02010333	1.0089179	0.48996136	0.036311858	0.93435009	0.8832478	-0.13667008	0.94361433	0.89870591	0.23419032	1.0066691	0.96913898	-0.081019248	1.027286	0.97942859	0.15433933	0.85388226	1.0373948	0.043175503	1.0383603	1.4142315	-0.15040128	1.0246822	1.4413517	0.18002327	0.96159248	1.4805047	0.011451707	0.89069224	1.0714769	-0.18210491	0.87683051	1.1043479	0.28377461	1.0213211	0.84367058	-0.21879563	1.076942	0.90940007	0.29656764
366	1.46	0.8874798	0.12475415	-0.059500188	1.0646405	0.039451423	0.061542245	0.81836359	0.26449255	-0.093676446	0.91753527	0.057359059	0.098180788	0.8445135	0.25444608	0.001714924	0.92780768	0.096553291	0.005999643	0.74182535	0.28686075	-0.048313495	0.84740496	0.039819821	0.050018045	1.1315287	0.52148604	-0.10725116	1.0343163	0.49857491	0.1629445	1.1361286	0.51156761	0.020368365	1.0103181	0.49001167	0.036830122	0.93947739	0.88492658	-0.13720895	0.94667985	0.89936713	0.23446219	1.0121839	0.97070038	-0.080983429	1.0325069	0.98032274	0.15438937	0.85914636	1.0384575	0.04317659	1.0429983	1.4153793	-0.15063848	1.0296928	1.4427104	0.17977394	0.96640316	1.4816834	0.011274101	0.89490836	1.0729283	-0.1821852	0.88231679	1.1053897	0.28385571	1.0241728	0.84462094	-0.22008917	1.0836649	0.91159145	0.29553092
367	1.464	0.906405	0.12248292	-0.060198513	1.0647392	0.039412191	0.061508862	0.83320101	0.25998536	-0.093907038	0.91763574	0.057679201	0.098058677	0.86031078	0.25032783	0.0012288602	0.92833266	0.096880339	0.0059241023	0.75597099	0.27990177	-0.048378988	0.84780332	0.040181607	0.050081054	1.1404536	0.52452799	-0.10748503	1.035824	0.4986086	0.16310982	1.146465	0.51493045	0.020261143	1.0117463	0.4900595	0.037355244	0.94466861	0.88648524	-0.13768903	0.95065074	0.90002509	0.23453515	1.0176964	0.97218102	-0.080969607	1.0377105	0.98117165	0.15442046	0.86442078	1.0394785	0.043192069	1.047634	1.4164588	-0.15086389	1.0347944	1.4440032	0.17947622	0.97120464	1.4827931	0.011087471	0.89914361	1.0743098	-0.18227697	0.88779891	1.1063705	0.28394333	1.0270631	0.84552351	-0.22137503	1.0903826	0.91370378	0.2944886
368	1.468	0.92551225	0.12023137	-0.060769394	1.064817	0.039359937	0.061472373	0.84818806	0.25526014	-0.094139694	0.91778469	0.057996293	0.097867254	0.87597706	0.24610451	0.00079804743	0.92881019	0.097244767	0.0059233723	0.77042332	0.27281157	-0.048515643	0.84821633	0.040519263	0.050088185	1.1492165	0.52740354	-0.10774066	1.0372876	0.49860814	0.16326538	1.1556082	0.51800638	0.019854412	1.0131946	0.49013233	0.037716446	0.94996001	0.88792276	-0.13807103	0.95565554	0.90071309	0.23437847	1.0232099	0.97357252	-0.080973841	1.0428987	0.98197377	0.15444156	0.86968471	1.0404455	0.043204289	1.0522719	1.4174721	-0.15107596	1.0399885	1.4452259	0.17912354	0.97600906	1.4838396	0.010903676	0.90339075	1.0756221	-0.1823786	0.89328263	1.1072886	0.28403801	1.0299946	0.84637867	-0.22265239	1.0970465	0.91572559	0.29344036
369	1.472	0.94480539	0.11795865	-0.061231492	1.0649024	0.039316193	0.061425709	0.86333052	0.25032715	-0.094374631	0.91799835	0.058315924	0.097605399	0.89152643	0.24178136	0.00043162489	0.9291647	0.097636147	0.0058900971	0.78513457	0.26560653	-0.04868808	0.84851876	0.040915031	0.04990712	1.1578295	0.53012591	-0.1079935	1.0386811	0.49860443	0.16337713	1.1640783	0.52085672	0.019296978	1.0146682	0.49025334	0.037883432	0.9553173	0.8892567	-0.13837573	0.96125368	0.90142077	0.23408657	1.028737	0.97487086	-0.080990736	1.0480705	0.98272798	0.15445967	0.87490846	1.0413364	0.043186368	1.0569124	1.4184252	-0.15128028	1.0451937	1.4463758	0.17876348	0.9808319	1.4848338	0.010748572	0.90765544	1.076868	-0.1824869	0.89876929	1.1081438	0.28413813	1.0329741	0.84718994	-0.22391638	1.1036048	0.91764311	0.29238707
370	1.476	0.96423772	0.11561755	-0.061634054	1.0650343	0.039301312	0.061356408	0.87863191	0.24520733	-0.094618203	0.91832065	0.058641724	0.097269902	0.9070837	0.23736662	0.00011001546	0.92925456	0.098042451	0.0057098323	0.80004008	0.25829165	-0.048869603	0.84867969	0.041402339	0.049523897	1.1662922	0.53268905	-0.10825219	1.0400036	0.49862717	0.16340231	1.1723075	0.52354042	0.018703105	1.0161627	0.49042497	0.037938723	0.96074189	0.89050524	-0.13864812	0.96697281	0.90211715	0.23376415	1.0342862	0.97608076	-0.081015767	1.0532258	0.98343826	0.15447877	0.88009517	1.0421516	0.043128663	1.0615517	1.4193249	-0.15148412	1.0503195	1.4474535	0.17846101	0.98567929	1.4857764	0.010639487	0.91194272	1.0780509	-0.18260411	0.90426116	1.1089412	0.28424396	1.0360025	0.84796119	-0.22516229	1.1100489	0.91945343	0.29132879
371	1.48	0.98373338	0.11320353	-0.0620129	1.0652229	0.039305608	0.061259022	0.89409816	0.2399298	-0.094872708	0.91875997	0.058980481	0.096873414	0.92271695	0.23287081	-0.00017447125	0.92914431	0.098468348	0.0053935511	0.81513943	0.25085113	-0.049083461	0.84877245	0.041985138	0.049056065	1.1745702	0.53507017	-0.10854462	1.0413575	0.49868807	0.16336257	1.1804726	0.52607434	0.018116488	1.0176711	0.49061956	0.037966592	0.96631944	0.89167177	-0.13891125	0.9725468	0.90278034	0.23347125	1.0398502	0.97721052	-0.081045367	1.0583706	0.98411408	0.15450085	0.88526853	1.0429079	0.043028334	1.0661854	1.4201738	-0.15168847	1.0553501	1.448467	0.17823597	0.99053991	1.4866597	0.010559807	0.91624568	1.0791717	-0.18273506	0.90975772	1.109687	0.28435555	1.0390729	0.84869196	-0.22638896	1.1164095	0.92116298	0.29026559
372	1.484	1.003232	0.11075843	-0.062349308	1.0654272	0.039299862	0.061147537	0.90973979	0.23452465	-0.095134463	0.91922562	0.059345694	0.096466611	0.93840612	0.22829858	-0.00041654415	0.92913477	0.098924387	0.005055347	0.83049478	0.24325214	-0.049377451	0.84887141	0.042651782	0.048613407	1.1825957	0.53726709	-0.10888796	1.0428941	0.49878109	0.16333533	1.1885538	0.52844435	0.017537149	1.0192455	0.49078972	0.038013077	0.97217998	0.89274647	-0.13916164	0.97788144	0.90340364	0.23322828	1.0454154	0.97826366	-0.0810789	1.0635132	0.98476492	0.15452357	0.89044579	1.0436188	0.04288187	1.0708113	1.4209696	-0.15188876	1.0603277	1.4494357	0.17806015	0.9953975	1.4874819	0.010475333	0.92056105	1.0802263	-0.18288266	0.91524428	1.1103788	0.28446551	1.0421808	0.84937668	-0.2276014	1.1227218	0.92277848	0.28919912
